<svg width="26" height="31" viewBox="0 0 26 31" fill="none" xmlns="http://www.w3.org/2000/svg">
<path d="M24.5 11.5V27C24.5 28.6569 23.1569 30 21.5 30H4.5C2.84315 30 1.5 28.6569 1.5 27V4C1.5 2.34315 2.84315 1 4.5 1H14L24.5 11.5Z" fill="#B2CCCC"/>
<path d="M10 18L13 15.5M13 15.5L16 18M13 15.5V22M14 1H4.5C2.84315 1 1.5 2.34315 1.5 4V27C1.5 28.6569 2.84315 30 4.5 30H21.5C23.1569 30 24.5 28.6569 24.5 27V11.5M14 1L24.5 11.5M14 1V11.5H24.5M7.5 25.5H18.5" stroke="#001E26" stroke-width="1.5" stroke-linecap="round" stroke-linejoin="round"/>
</svg>
