<svg width="100%" height="100%" viewBox="0 0 25 20" fill="none"
    xmlns="http://www.w3.org/2000/svg">
    <path fill-rule="evenodd" clip-rule="evenodd" d="M4.5 0C2.01472 0 0 2.01472 0 4.5V18.5C0 20.9853 2.01472 23 4.5 23H14.2574C15.4508 23 16.5954 22.5259 17.4393 21.682L18.5607 20.5607C19.1464 19.9749 19.1464 19.0251 18.5607 18.4393C17.9749 17.8536 17.0251 17.8536 16.4393 18.4393L15.318 19.5607C15.0367 19.842 14.6552 20 14.2574 20H4.5C3.67157 20 3 19.3284 3 18.5V4.5C3 3.67157 3.67157 3 4.5 3H14.0581C14.5138 3 14.9448 3.20713 15.2294 3.56296L16.3287 4.93704C16.8462 5.58394 17.7901 5.68882 18.437 5.1713C19.0839 4.65379 19.1888 3.70985 18.6713 3.06296L17.572 1.68887C16.7181 0.621404 15.4252 0 14.0581 0H4.5ZM18.4046 6.42152C17.809 5.84574 16.8594 5.86184 16.2836 6.45747C15.7078 7.0531 15.7239 8.00271 16.3195 8.57848L17.7901 10H8C7.17157 10 6.5 10.6716 6.5 11.5C6.5 12.3284 7.17157 13 8 13H17.7901L16.3195 14.4215C15.7239 14.9973 15.7078 15.9469 16.2836 16.5425C16.8594 17.1382 17.809 17.1543 18.4046 16.5785L22.5425 12.5785C22.8349 12.2959 23 11.9066 23 11.5C23 11.0934 22.8349 10.7041 22.5425 10.4215L18.4046 6.42152Z" fill="#B2CCCC"/>
</svg>
