<svg width="24" height="26" viewBox="0 0 24 26" fill="none" xmlns="http://www.w3.org/2000/svg">
<path d="M1.96637 6.28271H6.46637H10.9664" stroke="#B2CCCC" stroke-width="2" stroke-linecap="round"/>
<path d="M1.96637 10.2827H10.9664" stroke="#B2CCCC" stroke-width="2" stroke-linecap="round"/>
<path d="M1.96637 14.2827H7.96637" stroke="#B2CCCC" stroke-width="2" stroke-linecap="round"/>
<path d="M13.5585 19.5524V1.81181C13.5585 1.15165 14.1868 0.672645 14.8234 0.847543L20.7511 2.47618C21.0941 2.57044 21.3613 2.83987 21.4526 3.18373L22.9523 8.8295C23.1699 9.64869 22.3335 10.3501 21.5647 9.99325L17.8133 8.25179C17.1521 7.9449 16.3953 8.42566 16.3922 9.15453L16.347 19.6674C16.3444 20.2732 15.808 20.7376 15.2081 20.6534L14.4195 20.5427C13.9258 20.4734 13.5585 20.051 13.5585 19.5524Z" fill="white"/>
<ellipse cx="11.5702" cy="20.8125" rx="4.77194" ry="4.6875" fill="white"/>
</svg>
