<svg width="100%" height="100%" viewBox="0 0 25 25" fill="none"
    xmlns="http://www.w3.org/2000/svg">
    <path fill-rule="evenodd" clip-rule="evenodd" d="M10.5 13C13.8137 13 16.5 10.3137 16.5 7C16.5 3.68629 13.8137 1 10.5 1C7.18629 1 4.5 3.68629 4.5 7C4.5 10.3137 7.18629 13 10.5 13ZM10.5 25C4.5 25 1 23 1 16H20C20 23 16.5 25 10.5 25Z" fill="#B2CCCC"/>
    <path d="M1 16V15.5C0.723858 15.5 0.5 15.7239 0.5 16H1ZM20 16H20.5C20.5 15.7239 20.2761 15.5 20 15.5V16ZM16 7C16 10.0376 13.5376 12.5 10.5 12.5V13.5C14.0899 13.5 17 10.5899 17 7H16ZM10.5 1.5C13.5376 1.5 16 3.96243 16 7H17C17 3.41015 14.0899 0.5 10.5 0.5V1.5ZM5 7C5 3.96243 7.46243 1.5 10.5 1.5V0.5C6.91015 0.5 4 3.41015 4 7H5ZM10.5 12.5C7.46243 12.5 5 10.0376 5 7H4C4 10.5899 6.91015 13.5 10.5 13.5V12.5ZM0.5 16C0.5 19.5757 1.39481 21.9987 3.17703 23.5067C4.9402 24.9986 7.46502 25.5 10.5 25.5V24.5C7.53498 24.5 5.3098 24.0014 3.82297 22.7433C2.35519 21.5013 1.5 19.4243 1.5 16H0.5ZM20 15.5H1V16.5H20V15.5ZM10.5 25.5C13.535 25.5 16.0598 24.9986 17.823 23.5067C19.6052 21.9987 20.5 19.5757 20.5 16H19.5C19.5 19.4243 18.6448 21.5013 17.177 22.7433C15.6902 24.0014 13.465 24.5 10.5 24.5V25.5Z" fill="#B2CCCC"/>
</svg>
