<svg width="100%" height="100%" viewBox="0 0 25 20" fill="none"
    xmlns="http://www.w3.org/2000/svg">
    <path fill-rule="evenodd" clip-rule="evenodd" d="M12.5607 0.43934C11.9749 -0.146447 11.0251 -0.146447 10.4393 0.43934L6.43934 4.43934C5.85355 5.02513 5.85355 5.97487 6.43934 6.56066C7.02513 7.14645 7.97487 7.14645 8.56066 6.56066L10 5.12132V16.5C10 17.3284 10.6716 18 11.5 18C12.3284 18 13 17.3284 13 16.5V5.12132L14.4393 6.56066C15.0251 7.14645 15.9749 7.14645 16.5607 6.56066C17.1464 5.97487 17.1464 5.02513 16.5607 4.43934L12.5607 0.43934ZM1.5 7.99999C1.10218 7.99999 0.720646 8.15803 0.439341 8.43933C0.158036 8.72064 0 9.10217 0 9.49999V21.5C0 22.3284 0.671573 23 1.5 23H21.5C22.3284 23 23 22.3284 23 21.5V9.5C23 8.67157 22.3284 8 21.5 8H18.5C17.6716 8 17 8.67157 17 9.5C17 10.3284 17.6716 11 18.5 11H20V20H3V11L4.5 11C5.32842 11 6 10.3284 6 9.5C6 8.67158 5.32843 8 4.5 8L1.5 7.99999Z" fill="#B2CCCC"/>
</svg>
