<svg width="100%" height="100%" viewBox="0 0 25 20" fill="none"
    xmlns="http://www.w3.org/2000/svg">
    <path fill-rule="evenodd" clip-rule="evenodd" d="M10 4.60606L24 1V5.63636L10 9.24242V4.60606ZM24 16.5C24 18.433 21.7614 20 19 20C16.2386 20 14 18.433 14 16.5C14 14.567 16.2386 13 19 13C21.7614 13 24 14.567 24 16.5ZM10 18.5C10 20.433 7.98528 22 5.5 22C3.01472 22 1 20.433 1 18.5C1 16.567 3.01472 15 5.5 15C7.98528 15 10 16.567 10 18.5Z" fill="#B2CCCC"/>
    <path d="M24 1H25C25 0.690815 24.857 0.399017 24.6126 0.20961C24.3682 0.0202017 24.05 -0.045513 23.7506 0.0316083L24 1ZM10 4.60606L9.75057 3.63767C9.30877 3.75146 9 4.14984 9 4.60606H10ZM24 5.63636L24.2494 6.60476C24.6912 6.49096 25 6.09258 25 5.63636H24ZM10 9.24242H9C9 9.55161 9.14302 9.84341 9.3874 10.0328C9.63177 10.2222 9.95002 10.2879 10.2494 10.2108L10 9.24242ZM23 16.4545C23 17.0068 23.4477 17.4545 24 17.4545C24.5523 17.4545 25 17.0068 25 16.4545H23ZM25 5.63636C25 5.08408 24.5523 4.63636 24 4.63636C23.4477 4.63636 23 5.08408 23 5.63636H25ZM9 18C9 18.5523 9.44771 19 10 19C10.5523 19 11 18.5523 11 18H9ZM11 9.24242C11 8.69014 10.5523 8.24242 10 8.24242C9.44771 8.24242 9 8.69014 9 9.24242H11ZM23.7506 0.0316083L9.75057 3.63767L10.2494 5.57445L24.2494 1.96839L23.7506 0.0316083ZM25 5.63636V1H23V5.63636H25ZM10.2494 10.2108L24.2494 6.60476L23.7506 4.66797L9.75057 8.27403L10.2494 10.2108ZM9 4.60606V9.24242H11V4.60606H9ZM19 21C20.5607 21 22.0166 20.5588 23.109 19.7941C24.1982 19.0316 25 17.8824 25 16.5H23C23 17.0506 22.6825 17.6514 21.9621 18.1556C21.2448 18.6577 20.2007 19 19 19V21ZM13 16.5C13 17.8824 13.8018 19.0316 14.891 19.7941C15.9834 20.5588 17.4393 21 19 21V19C17.7993 19 16.7552 18.6577 16.0379 18.1556C15.3175 17.6514 15 17.0506 15 16.5H13ZM19 12C17.4393 12 15.9834 12.4412 14.891 13.2059C13.8018 13.9684 13 15.1176 13 16.5H15C15 15.9494 15.3175 15.3486 16.0379 14.8444C16.7552 14.3423 17.7993 14 19 14V12ZM25 16.5C25 15.1176 24.1982 13.9684 23.109 13.2059C22.0166 12.4412 20.5607 12 19 12V14C20.2007 14 21.2448 14.3423 21.9621 14.8444C22.6825 15.3486 23 15.9494 23 16.5H25ZM5.5 23C8.28912 23 11 21.2046 11 18.5H9C9 19.6614 7.68144 21 5.5 21V23ZM0 18.5C0 21.2046 2.71088 23 5.5 23V21C3.31856 21 2 19.6614 2 18.5H0ZM5.5 14C2.71088 14 0 15.7954 0 18.5H2C2 17.3386 3.31856 16 5.5 16V14ZM11 18.5C11 15.7954 8.28912 14 5.5 14V16C7.68144 16 9 17.3386 9 18.5H11ZM25 16.4545V5.63636H23V16.4545H25ZM11 18V9.24242H9V18H11Z" fill="#B2CCCC"/>
</svg>
