<svg width="100%" height="100%" viewBox="0 0 25 25" fill="none"
    xmlns="http://www.w3.org/2000/svg">
    <path fill-rule="evenodd" clip-rule="evenodd" d="M6.5 10C8.98528 10 11 7.98528 11 5.5C11 3.01472 8.98528 1 6.5 1C4.01472 1 2 3.01472 2 5.5C2 7.98528 4.01472 10 6.5 10ZM21.3656 7.80513C20.5799 9.11972 19.1428 10 17.5 10C15.0147 10 13 7.98528 13 5.5C13 3.01472 15.0147 1 17.5 1C19.1428 1 20.5799 1.88028 21.3656 3.19487L24 5.5L21.3656 7.80513ZM10 24V11.5H1V20.5C2.6 25.3 8 25 10 24ZM22.5 11.5H12V22C13.5 26 21 26 22.5 22V11.5Z" fill="#B2CCCC"/>
    <path d="M21.3656 7.80513L21.0363 7.42885L20.9769 7.48085L20.9364 7.54864L21.3656 7.80513ZM21.3656 3.19487L20.9364 3.45136L20.9769 3.51915L21.0363 3.57115L21.3656 3.19487ZM24 5.5L24.3293 5.87629L24.7593 5.5L24.3293 5.12371L24 5.5ZM10 11.5H10.5V11H10V11.5ZM10 24L10.2236 24.4472L10.5 24.309V24H10ZM1 11.5V11H0.5V11.5H1ZM1 20.5H0.5V20.5811L0.525658 20.6581L1 20.5ZM12 11.5V11H11.5V11.5H12ZM22.5 11.5H23V11H22.5V11.5ZM12 22H11.5V22.0907L11.5318 22.1756L12 22ZM22.5 22L22.9682 22.1756L23 22.0907V22H22.5ZM10.5 5.5C10.5 7.70914 8.70914 9.5 6.5 9.5V10.5C9.26142 10.5 11.5 8.26142 11.5 5.5H10.5ZM6.5 1.5C8.70914 1.5 10.5 3.29086 10.5 5.5H11.5C11.5 2.73858 9.26142 0.5 6.5 0.5V1.5ZM2.5 5.5C2.5 3.29086 4.29086 1.5 6.5 1.5V0.5C3.73858 0.5 1.5 2.73858 1.5 5.5H2.5ZM6.5 9.5C4.29086 9.5 2.5 7.70914 2.5 5.5H1.5C1.5 8.26142 3.73858 10.5 6.5 10.5V9.5ZM20.9364 7.54864C20.2373 8.71847 18.9596 9.5 17.5 9.5V10.5C19.3259 10.5 20.9226 9.52098 21.7948 8.06163L20.9364 7.54864ZM17.5 9.5C15.2909 9.5 13.5 7.70914 13.5 5.5H12.5C12.5 8.26142 14.7386 10.5 17.5 10.5V9.5ZM13.5 5.5C13.5 3.29086 15.2909 1.5 17.5 1.5V0.5C14.7386 0.5 12.5 2.73858 12.5 5.5H13.5ZM17.5 1.5C18.9596 1.5 20.2373 2.28153 20.9364 3.45136L21.7948 2.93837C20.9226 1.47902 19.3259 0.5 17.5 0.5V1.5ZM21.0363 3.57115L23.6707 5.87629L24.3293 5.12371L21.6948 2.81858L21.0363 3.57115ZM23.6707 5.12371L21.0363 7.42885L21.6948 8.18142L24.3293 5.87629L23.6707 5.12371ZM9.5 11.5V24H10.5V11.5H9.5ZM1 12H10V11H1V12ZM1.5 20.5V11.5H0.5V20.5H1.5ZM9.77639 23.5528C8.88387 23.999 7.15168 24.3132 5.45847 23.9369C3.79707 23.5677 2.20893 22.5456 1.47434 20.3419L0.525658 20.6581C1.39107 23.2544 3.30293 24.4823 5.24153 24.9131C7.14832 25.3368 9.11613 25.001 10.2236 24.4472L9.77639 23.5528ZM12 12H22.5V11H12V12ZM12.5 22V11.5H11.5V22H12.5ZM22.0318 21.8244C21.3852 23.5487 19.3934 24.5 17.25 24.5C15.1066 24.5 13.1148 23.5487 12.4682 21.8244L11.5318 22.1756C12.3852 24.4513 14.8934 25.5 17.25 25.5C19.6066 25.5 22.1148 24.4513 22.9682 22.1756L22.0318 21.8244ZM22 11.5V22H23V11.5H22Z" fill="#B2CCCC"/>
</svg>
